<svg width="41" height="40" viewBox="0 0 41 40" fill="none" xmlns="http://www.w3.org/2000/svg">
<g id="Group 1">
<path id="Vector" d="M20.012 0C11.6599 0 9.21722 0.00861611 8.74241 0.0480041C7.02842 0.190478 5.96187 0.460347 4.79993 1.03886C3.90447 1.48351 3.19825 1.99894 2.50127 2.72146C1.23193 4.03911 0.462637 5.66017 0.184152 7.5871C0.0487563 8.52257 0.00936831 8.71335 0.00136764 13.4916C-0.00170955 15.0844 0.00136764 17.1805 0.00136764 19.9922C0.00136764 28.3375 0.0105992 30.7777 0.0506026 31.2516C0.189076 32.9194 0.450636 33.9687 1.00453 35.1165C2.06308 37.3136 4.08479 38.963 6.46653 39.5784C7.29121 39.7908 8.20206 39.9077 9.37139 39.9631C9.86682 39.9846 14.9165 40 19.9692 40C25.0219 40 30.0747 39.9938 30.5578 39.9692C31.9118 39.9055 32.698 39.8 33.5673 39.5753C34.7482 39.2725 35.8489 38.7155 36.7923 37.9432C37.7357 37.171 38.4991 36.2021 39.0293 35.1042C39.5724 33.9841 39.8478 32.8948 39.9724 31.314C39.9995 30.9694 40.0109 25.4745 40.0109 19.9869C40.0109 14.4985 39.9986 9.01369 39.9715 8.66904C39.8453 7.06275 39.5699 5.98266 39.0093 4.84102C38.5492 3.90648 38.0384 3.20858 37.2968 2.49498C35.9736 1.23087 34.355 0.461578 32.426 0.1834C31.4914 0.0483118 31.3052 0.0083084 26.5233 0H20.012Z" fill="url(#paint0_radial_279_925)"/>
<path id="Vector_2" d="M20.012 0C11.6599 0 9.21722 0.00861611 8.74241 0.0480041C7.02842 0.190478 5.96187 0.460347 4.79993 1.03886C3.90447 1.48351 3.19825 1.99894 2.50127 2.72146C1.23193 4.03911 0.462637 5.66017 0.184152 7.5871C0.0487563 8.52257 0.00936831 8.71335 0.00136764 13.4916C-0.00170955 15.0844 0.00136764 17.1805 0.00136764 19.9922C0.00136764 28.3375 0.0105992 30.7777 0.0506026 31.2516C0.189076 32.9194 0.450636 33.9687 1.00453 35.1165C2.06308 37.3136 4.08479 38.963 6.46653 39.5784C7.29121 39.7908 8.20206 39.9077 9.37139 39.9631C9.86682 39.9846 14.9165 40 19.9692 40C25.0219 40 30.0747 39.9938 30.5578 39.9692C31.9118 39.9055 32.698 39.8 33.5673 39.5753C34.7482 39.2725 35.8489 38.7155 36.7923 37.9432C37.7357 37.171 38.4991 36.2021 39.0293 35.1042C39.5724 33.9841 39.8478 32.8948 39.9724 31.314C39.9995 30.9694 40.0109 25.4745 40.0109 19.9869C40.0109 14.4985 39.9986 9.01369 39.9715 8.66904C39.8453 7.06275 39.5699 5.98266 39.0093 4.84102C38.5492 3.90648 38.0384 3.20858 37.2968 2.49498C35.9736 1.23087 34.355 0.461578 32.426 0.1834C31.4914 0.0483118 31.3052 0.0083084 26.5233 0H20.012Z" fill="url(#paint1_radial_279_925)"/>
<path id="Vector_3" d="M20.0019 5.2312C15.9905 5.2312 15.487 5.24874 13.9115 5.32044C12.3391 5.39245 11.2657 5.64139 10.3266 6.00665C9.35512 6.38391 8.53106 6.88857 7.71006 7.70987C6.88846 8.53086 6.3838 9.35493 6.0053 10.3261C5.63912 11.2656 5.38987 12.3392 5.31909 13.911C5.24893 15.4865 5.23047 15.9903 5.23047 20.0017C5.23047 24.0131 5.24832 24.515 5.31971 26.0905C5.39202 27.6629 5.64097 28.7363 6.00592 29.6754C6.38349 30.6469 6.88815 31.471 7.70945 32.292C8.53013 33.1136 9.3542 33.6194 10.3251 33.9967C11.2648 34.362 12.3385 34.6109 13.9106 34.6829C15.4861 34.7546 15.9892 34.7722 20.0003 34.7722C24.0121 34.7722 24.5139 34.7546 26.0895 34.6829C27.6619 34.6109 28.7365 34.362 29.6762 33.9967C30.6474 33.6194 31.4702 33.1136 32.2909 32.292C33.1125 31.471 33.6172 30.6469 33.9957 29.6757C34.3588 28.7363 34.608 27.6626 34.6819 26.0908C34.7527 24.5153 34.7711 24.0131 34.7711 20.0017C34.7711 15.9903 34.7527 15.4868 34.6819 13.9113C34.608 12.3389 34.3588 11.2656 33.9957 10.3264C33.6172 9.35493 33.1125 8.53086 32.2909 7.70987C31.4693 6.88826 30.6477 6.38361 29.6753 6.00665C28.7337 5.64139 27.6597 5.39245 26.0873 5.32044C24.5118 5.24874 24.0102 5.2312 19.9976 5.2312H20.0019ZM18.6768 7.89296C19.0701 7.89235 19.5089 7.89296 20.0019 7.89296C23.9456 7.89296 24.413 7.90712 25.9704 7.9779C27.4105 8.04375 28.1921 8.28438 28.7128 8.48655C29.402 8.75427 29.8935 9.0743 30.4101 9.59126C30.9271 10.1082 31.2471 10.6006 31.5155 11.2899C31.7176 11.8099 31.9586 12.5915 32.0241 14.0316C32.0949 15.5887 32.1103 16.0564 32.1103 19.9983C32.1103 23.9402 32.0949 24.4079 32.0241 25.965C31.9583 27.4051 31.7176 28.1867 31.5155 28.7067C31.2477 29.396 30.9271 29.8868 30.4101 30.4035C29.8932 30.9204 29.4024 31.2405 28.7128 31.5082C28.1927 31.7113 27.4105 31.9513 25.9704 32.0172C24.4133 32.0879 23.9456 32.1033 20.0019 32.1033C16.0578 32.1033 15.5904 32.0879 14.0334 32.0172C12.5932 31.9507 11.8116 31.7101 11.2907 31.5079C10.6014 31.2402 10.109 30.9201 9.59207 30.4032C9.0751 29.8862 8.75507 29.3951 8.48674 28.7055C8.28457 28.1855 8.04363 27.4038 7.97809 25.9637C7.90731 24.4067 7.89316 23.9389 7.89316 19.9946C7.89316 16.0503 7.90731 15.585 7.97809 14.0279C8.04394 12.5878 8.28457 11.8062 8.48674 11.2856C8.75446 10.5963 9.0751 10.1039 9.59207 9.58695C10.109 9.06999 10.6014 8.74996 11.2907 8.48163C11.8113 8.27854 12.5932 8.03852 14.0334 7.97236C15.3959 7.91081 15.924 7.89235 18.6768 7.88927V7.89296ZM27.8862 10.3455C27.5356 10.3455 27.1929 10.4494 26.9014 10.6442C26.6099 10.839 26.3828 11.1159 26.2486 11.4398C26.1145 11.7637 26.0794 12.1201 26.1479 12.464C26.2163 12.8078 26.3852 13.1236 26.6331 13.3715C26.8811 13.6193 27.197 13.7881 27.5408 13.8564C27.8847 13.9247 28.2411 13.8895 28.5649 13.7553C28.8888 13.621 29.1656 13.3938 29.3603 13.1022C29.555 12.8107 29.6588 12.4679 29.6587 12.1173C29.6587 11.1388 28.8648 10.3449 27.8862 10.3449V10.3455ZM20.0019 12.4164C15.8129 12.4164 12.4166 15.8127 12.4166 20.0017C12.4166 24.1906 15.8129 27.5854 20.0019 27.5854C24.1908 27.5854 27.5862 24.1906 27.5862 20.0017C27.5862 15.8127 24.1905 12.4164 20.0016 12.4164H20.0019ZM20.0019 15.0782C22.7209 15.0782 24.9254 17.2824 24.9254 20.0017C24.9254 22.7207 22.7209 24.9252 20.0019 24.9252C17.2826 24.9252 15.0784 22.7207 15.0784 20.0017C15.0784 17.2824 17.2826 15.0782 20.0019 15.0782Z" fill="white"/>
</g>
<defs>
<radialGradient id="paint0_radial_279_925" cx="0" cy="0" r="1" gradientUnits="userSpaceOnUse" gradientTransform="translate(10.6279 43.0808) rotate(-90) scale(39.643 36.8811)">
<stop stop-color="#FFDD55"/>
<stop offset="0.1" stop-color="#FFDD55"/>
<stop offset="0.5" stop-color="#FF543E"/>
<stop offset="1" stop-color="#C837AB"/>
</radialGradient>
<radialGradient id="paint1_radial_279_925" cx="0" cy="0" r="1" gradientUnits="userSpaceOnUse" gradientTransform="translate(-6.70204 2.88153) rotate(78.6776) scale(17.7207 73.0641)">
<stop stop-color="#3771C8"/>
<stop offset="0.128" stop-color="#3771C8"/>
<stop offset="1" stop-color="#6600FF" stop-opacity="0"/>
</radialGradient>
</defs>
</svg>
